<?xml version="1.0" encoding="UTF-8" standalone="no"?>
<!-- Created with Inkscape (http://www.inkscape.org/) -->

<svg
   width="86.250008mm"
   height="82mm"
   viewBox="0 0 86.250007 82"
   version="1.1"
   id="svg1"
   inkscape:version="1.4.2 (f4327f4, 2025-05-13)"
   sodipodi:docname="parrot_logo.svg"
   inkscape:export-filename="parrot_logo.png"
   inkscape:export-xdpi="100"
   inkscape:export-ydpi="100"
   xmlns:inkscape="http://www.inkscape.org/namespaces/inkscape"
   xmlns:sodipodi="http://sodipodi.sourceforge.net/DTD/sodipodi-0.dtd"
   xmlns="http://www.w3.org/2000/svg"
   xmlns:svg="http://www.w3.org/2000/svg">
  <sodipodi:namedview
     id="namedview1"
     pagecolor="#ffffff"
     bordercolor="#eeeeee"
     borderopacity="1"
     inkscape:showpageshadow="0"
     inkscape:pageopacity="0"
     inkscape:pagecheckerboard="0"
     inkscape:deskcolor="#505050"
     inkscape:document-units="mm"
     inkscape:zoom="2.54"
     inkscape:cx="135.43307"
     inkscape:cy="125.19685"
     inkscape:window-width="1358"
     inkscape:window-height="1020"
     inkscape:window-x="641"
     inkscape:window-y="60"
     inkscape:window-maximized="0"
     inkscape:current-layer="layer1" />
  <defs
     id="defs1">
    <inkscape:path-effect
       effect="bspline"
       id="path-effect13"
       is_visible="true"
       lpeversion="1.3"
       weight="33.333333"
       steps="2"
       helper_size="0"
       apply_no_weight="true"
       apply_with_weight="true"
       only_selected="false"
       uniform="false" />
    <inkscape:path-effect
       effect="bspline"
       id="path-effect12"
       is_visible="true"
       lpeversion="1.3"
       weight="33.333333"
       steps="2"
       helper_size="0"
       apply_no_weight="true"
       apply_with_weight="true"
       only_selected="false"
       uniform="false" />
    <inkscape:path-effect
       effect="bspline"
       id="path-effect11"
       is_visible="true"
       lpeversion="1.3"
       weight="33.333333"
       steps="2"
       helper_size="0"
       apply_no_weight="true"
       apply_with_weight="true"
       only_selected="false"
       uniform="false" />
    <inkscape:path-effect
       effect="bspline"
       id="path-effect7"
       is_visible="true"
       lpeversion="1.3"
       weight="33.333333"
       steps="2"
       helper_size="0"
       apply_no_weight="true"
       apply_with_weight="true"
       only_selected="false"
       uniform="false" />
    <inkscape:path-effect
       effect="bspline"
       id="path-effect4"
       is_visible="true"
       lpeversion="1.3"
       weight="33.333333"
       steps="2"
       helper_size="0"
       apply_no_weight="true"
       apply_with_weight="true"
       only_selected="false"
       uniform="false" />
    <inkscape:path-effect
       effect="bspline"
       id="path-effect3"
       is_visible="true"
       lpeversion="1.3"
       weight="33.333333"
       steps="2"
       helper_size="0"
       apply_no_weight="true"
       apply_with_weight="true"
       only_selected="false"
       uniform="false" />
    <clipPath
       clipPathUnits="userSpaceOnUse"
       id="clipPath6">
      <rect
         style="fill:#ffffff;stroke:#000000;stroke-width:1.37433;stroke-linecap:round;stroke-dasharray:none"
         id="rect7"
         width="57.16711"
         height="78.064644"
         x="7.9127922"
         y="73.547577"
         transform="rotate(-22.09759)" />
    </clipPath>
    <clipPath
       clipPathUnits="userSpaceOnUse"
       id="clipPath6-4">
      <rect
         style="fill:#ffffff;stroke:#000000;stroke-width:1.37433;stroke-linecap:round;stroke-dasharray:none"
         id="rect7-8"
         width="57.16711"
         height="78.064644"
         x="7.9127922"
         y="73.547577"
         transform="rotate(-22.09759)" />
    </clipPath>
  </defs>
  <circle
     style="fill:#80ffb3;stroke:#000000;stroke-width:1.424;stroke-linecap:butt;stroke-linejoin:miter;stroke-dasharray:none"
     id="path8"
     cx="44.36182"
     cy="41.248184"
     r="36" />
  <g
     inkscape:label="Layer 1"
     inkscape:groupmode="layer"
     id="layer1"
     transform="translate(-49.583333,-47.5)">
    <circle
       style="fill:#e3dbde;stroke:#000000;stroke-width:1.287;stroke-dasharray:none"
       id="path1"
       cx="93.945152"
       cy="88.748184"
       r="31" />
    <path
       style="fill:#2ad4ff;stroke:#000000;stroke-width:1.05343;stroke-linecap:butt;stroke-linejoin:miter;stroke-dasharray:none"
       d="m 89.538752,59.297821 c -0.601227,0.95578 -1.80368,2.867343 -2.742304,4.70439 -0.938623,1.837047 -1.613376,3.599472 -2.141845,5.349623 -0.528468,1.75015 -0.910588,3.487814 -1.153959,5.220001 -0.243371,1.732187 -0.347967,3.458726 -0.335735,5.064104 0.01223,1.605378 0.141286,3.089503 0.270345,4.009037 0.129059,0.919534 0.258112,1.274433 0.576951,2.393793 0.31884,1.119361 0.827431,3.003064 1.39716,4.76398 0.569729,1.760916 1.200527,3.398835 2.523339,5.268427 1.322812,1.869591 3.337472,3.970624 5.540523,6.086254 2.203051,2.11564 4.594211,4.2456 7.563263,6.35862 2.96906,2.11301 6.51503,4.20846 8.45221,5.18743 1.93719,0.97897 2.26394,0.84064 2.86383,0.35834 0.59989,-0.4823 1.4728,-1.30851 2.52247,-2.29468 1.04968,-0.98616 2.27613,-2.13231 3.29267,-3.39647 1.01654,-1.26417 1.82302,-2.64615 2.69412,-4.35352 0.8711,-1.70737 1.80675,-3.73998 2.5327,-5.901705 0.72595,-2.161724 1.24216,-4.452435 1.41962,-6.985204 0.17745,-2.532769 0.0161,-5.307436 -0.46784,-7.920862 -0.48397,-2.613425 -1.29056,-5.065453 -2.38578,-7.489868 -1.09522,-2.424415 -2.47897,-4.82102 -4.26967,-6.934368 -1.7907,-2.113349 -3.98818,-3.943224 -6.28074,-5.422815 -2.29256,-1.47959 -4.68006,-2.608812 -6.9147,-3.42805 -2.23463,-0.819238 -4.31622,-1.328436 -6.401785,-1.567738 -2.085565,-0.239302 -4.174892,-0.208679 -5.501135,-0.167781 -1.326244,0.0409 -1.889363,0.09207 -2.170921,0.117658 -0.281559,0.02559 -0.281561,0.02562 -0.882787,0.981404 z"
       id="path12"
       inkscape:path-effect="#path-effect12"
       inkscape:original-d="m 90.139978,58.34204 c -1.202453,1.911561 -2.404906,3.823124 -3.60736,5.734687 -0.674794,1.762531 -1.349547,3.524956 -2.02434,5.287488 -0.382143,1.737769 -0.764263,3.475433 -1.146406,5.213201 -0.104599,1.726606 -0.209195,3.453145 -0.313792,5.179718 0.129061,1.484183 0.258115,2.968308 0.387173,4.452461 0.129059,0.354915 0.258112,0.709814 0.38717,1.064721 0.508622,1.883814 1.017214,3.767517 1.525835,5.651332 0.630836,1.638017 1.261634,3.275936 1.89247,4.913953 2.014787,2.101167 4.029448,4.202199 6.044239,6.303369 2.391309,2.1301 4.782472,4.26006 7.173773,6.39015 3.54681,2.09594 7.09278,4.19139 10.64025,6.28772 0.3269,-0.13839 0.65365,-0.27672 0.98049,-0.41509 0.87294,-0.82623 1.74585,-1.65244 2.61875,-2.47863 1.22645,-1.14614 2.4529,-2.29229 3.67943,-3.43851 0.80655,-1.38211 1.61303,-2.76409 2.41955,-4.14615 0.93568,-2.03268 1.87133,-4.06529 2.80699,-6.097931 0.51624,-2.290807 1.03245,-4.58152 1.54868,-6.872279 -0.16132,-2.774778 -0.32264,-5.549445 -0.48396,-8.324168 -0.80662,-2.452129 -1.61321,-4.904157 -2.41982,-7.356239 -1.38383,-2.396749 -2.76758,-4.793354 -4.15142,-7.190103 -2.19756,-1.829948 -4.39504,-3.65982 -6.59256,-5.489733 -2.3876,-1.129271 -4.7751,-2.258494 -7.16266,-3.387741 -2.08171,-0.509228 -4.1633,-1.018425 -6.245019,-1.527652 -2.089411,0.03062 -4.178738,0.06125 -6.268108,0.09187 -0.563117,0.05117 -1.126236,0.102346 -1.689353,0.153519 z"
       transform="matrix(1.0033768,-0.00555829,0.00555829,1.0033768,-0.90673824,-0.03418356)"
       sodipodi:nodetypes="scccccccccccccccccccccccsss" />
    <circle
       style="fill:#000000;stroke:#000000;stroke-width:1.06439;stroke-linecap:butt;stroke-linejoin:miter;stroke-dasharray:none"
       id="path9"
       cx="105.98497"
       cy="76.574455"
       r="8.9167843" />
    <circle
       style="fill:#ffffff;stroke:#000000;stroke-width:1.053;stroke-linecap:butt;stroke-linejoin:miter;stroke-dasharray:none"
       id="path10"
       cx="110.09296"
       cy="73.591431"
       r="3.353694" />
    <path
       style="fill:#ff7f2a;stroke:#000000;stroke-width:1.05332;stroke-linecap:butt;stroke-linejoin:miter;stroke-dasharray:none"
       d="m 63.89966,88.519973 c 1.381869,-0.769186 3.554549,-2.067597 5.867594,-2.915141 2.313045,-0.847544 4.766212,-1.244141 6.989343,-1.374772 2.22313,-0.130632 4.215957,0.0047 5.264923,0.05851 1.048967,0.0538 1.153942,0.02603 1.172623,-0.55761 0.01868,-0.583641 -0.04893,-1.722846 -0.09832,-2.761761 -0.04939,-1.038915 -0.08053,-1.976797 -0.06928,-3.086272 0.01124,-1.109476 0.06488,-2.39028 0.19084,-3.624316 0.125965,-1.234037 0.324251,-2.421157 0.662006,-3.695426 0.337755,-1.274269 0.814939,-2.635532 1.281621,-3.797213 0.466682,-1.16168 0.922805,-2.123641 1.361046,-2.982202 0.43824,-0.858561 0.858544,-1.61362 1.247078,-2.288153 0.388534,-0.674534 0.74525,-1.268461 1.179159,-1.857314 0.433909,-0.588854 0.944968,-1.172573 0.490445,-1.424172 -0.454524,-0.251598 -1.874557,-0.17107 -3.47939,0.162682 -1.604834,0.333751 -3.39428,0.920686 -5.181049,1.701845 -1.786768,0.78116 -3.570642,1.756449 -5.50186,3.224567 -1.931219,1.468118 -4.009553,3.428892 -5.67252,5.354344 -1.662968,1.925452 -2.910373,3.815355 -3.954626,5.693714 -1.044252,1.87836 -1.885229,3.744955 -2.484598,5.485542 -0.599369,1.740588 -0.95706,3.354961 -1.221607,4.989338 -0.264547,1.634378 -0.435923,3.288601 -0.226109,3.995763 0.209814,0.707162 0.800819,0.467231 2.182687,-0.301956 z"
       id="path11"
       inkscape:path-effect="#path-effect11"
       inkscape:original-d="m 63.1088,89.049227 c 2.172729,-1.29844 4.345409,-2.596851 6.518181,-3.895317 2.453318,-0.396622 4.906485,-0.793219 7.3598,-1.18984 1.992946,0.135358 3.985773,0.270708 5.978719,0.406066 0.104986,-0.02777 0.209962,-0.05553 0.314952,-0.0833 -0.06763,-1.139514 -0.135239,-2.278719 -0.202874,-3.418349 -0.03115,-0.9382 -0.06229,-1.876082 -0.09343,-2.814152 0.05363,-1.280881 0.107263,-2.561685 0.160897,-3.842566 0.198297,-1.187192 0.396583,-2.374312 0.59488,-3.561505 0.477213,-1.361345 0.954397,-2.722608 1.43161,-4.083952 0.456151,-0.962017 0.912274,-1.923978 1.368425,-2.885995 0.42033,-0.755105 0.840634,-1.510164 1.260964,-2.265268 0.356738,-0.593963 0.713454,-1.18789 1.070192,-1.781853 0.51108,-0.583744 1.022139,-1.167463 1.533208,-1.751194 -1.420116,0.08053 -2.840149,0.161062 -4.260264,0.241596 -1.789552,0.586969 -3.578998,1.173904 -5.368552,1.760874 -1.783983,0.975349 -3.567857,1.950637 -5.351837,2.925985 -2.078457,1.960889 -4.156791,3.921663 -6.235247,5.882552 -1.247479,1.890015 -2.494884,3.779918 -3.742363,5.669932 -0.841026,1.866705 -1.682003,3.7333 -2.52303,5.600007 -0.357711,1.614468 -0.715401,3.228841 -1.073113,4.843308 -0.171382,1.654288 -0.342758,3.308511 -0.514138,4.962768 0.591007,-0.239933 1.182012,-0.479864 1.77302,-0.719797 z"
       transform="matrix(0.99969245,0,0,0.99969245,0.09857313,0.08957205)"
       sodipodi:nodetypes="sccccccccccccccccccccss" />
    <path
       style="fill:#ffff00;stroke:#000000;stroke-width:1.18378;stroke-linecap:butt;stroke-linejoin:miter;stroke-dasharray:none"
       d="m 84.464616,93.576173 c 0.296188,0.0045 0.8885,0.01344 1.256008,-0.0027 0.367507,-0.01616 0.510136,-0.05744 0.531526,-0.138458 0.02139,-0.08102 -0.07847,-0.201769 -0.247464,-0.406112 -0.168992,-0.204343 -0.407097,-0.492256 -0.819099,-1.046364 -0.412002,-0.554108 -0.997748,-1.374205 -1.590119,-2.551735 -0.59237,-1.17753 -1.19125,-2.712287 -1.636529,-3.962692 -0.445279,-1.250405 -0.736904,-2.216311 -1.033367,-3.221785 -0.296463,-1.005474 -0.597745,-2.050455 -0.978931,-2.61197 -0.381187,-0.561515 -0.842257,-0.639539 -1.402991,-0.694762 -0.560733,-0.05522 -1.221099,-0.08764 -2.065167,-0.100756 -0.844067,-0.01311 -1.871822,-0.0069 -2.840715,0.0238 -0.968892,0.03073 -1.878819,0.08598 -2.982034,0.255375 -1.103215,0.169396 -2.39957,0.452914 -3.239994,0.651254 -0.840425,0.19834 -1.224832,0.311483 -1.277541,0.583117 -0.05271,0.271633 0.226287,0.701751 0.607185,1.314055 0.380898,0.612303 0.86369,1.406779 1.458166,2.233986 0.594476,0.827206 1.300627,1.687131 2.275211,2.724189 0.974585,1.037057 2.217599,2.251243 3.403893,3.19441 1.186295,0.943167 2.315858,1.615304 3.54474,2.125431 1.228883,0.510126 2.557086,0.858239 3.697137,1.102445 1.140051,0.244206 2.091954,0.384507 3.043897,0.524814 0,2e-6 0,3e-6 0,4e-6 0,10e-7 0,-10e-7 0.296188,0.0045 z"
       id="path13"
       inkscape:path-effect="#path-effect13"
       inkscape:original-d="m 84.168428,93.571695 c 0.592375,0.009 1.184688,0.01791 1.777061,0.02687 0.142643,-0.04128 0.285271,-0.08256 0.427913,-0.123844 -0.09986,-0.120751 -0.199724,-0.241503 -0.299576,-0.362243 -0.238132,-0.287946 -0.476237,-0.575859 -0.714385,-0.863824 -0.585857,-0.820251 -1.171602,-1.640348 -1.757423,-2.460549 -0.59892,-1.534859 -1.1978,-3.069616 -1.796718,-4.604472 -0.29164,-0.965954 -0.583265,-1.93186 -0.874902,-2.897803 -0.301289,-1.045005 -0.602571,-2.089986 -0.90386,-3.13499 -0.461083,-0.07803 -0.922154,-0.15605 -1.38324,-0.234076 -0.660381,-0.03242 -1.320747,-0.06484 -1.981115,-0.09726 -1.027767,0.0062 -2.055522,0.01239 -3.083317,0.01858 -0.90999,0.05526 -1.819917,0.11051 -2.729908,0.165767 -1.296439,0.283536 -2.592794,0.567054 -3.889223,0.850588 -0.38442,0.113146 -0.768827,0.226289 -1.153243,0.339434 0.278999,0.430122 0.557995,0.86024 0.836993,1.290363 0.482797,0.794484 0.965589,1.58896 1.448386,2.383444 0.706155,0.859929 1.412306,1.719854 2.118459,2.579781 1.243016,1.214188 2.48603,2.428374 3.729049,3.642566 1.12957,0.672142 2.259133,1.344279 3.388701,2.01642 1.328197,0.348112 2.6564,0.696225 3.984588,1.044335 0.951914,0.140303 1.903817,0.280603 2.85576,0.42091 0,0 0,3e-6 0,5e-6 z"
       transform="matrix(0.91655526,0,0,0.91655526,10.15918,11.727441)"
       sodipodi:nodetypes="ccccccccccccccccscsscccc" />
  </g>
</svg>
